<svg
   width="8.5in"
   height="7in"
   viewBox="0 0 215.9 177.8"
   version="1.1"
   id="svg5"
   inkscape:version="1.1.1 (c3084ef, 2021-09-22)"
   xmlns:inkscape="http://www.inkscape.org/namespaces/inkscape"
   xmlns:sodipodi="http://sodipodi.sourceforge.net/DTD/sodipodi-0.dtd"
   xmlns="http://www.w3.org/2000/svg"
   xmlns:svg="http://www.w3.org/2000/svg">
  <sodipodi:namedview
     id="namedview7"
     pagecolor="#ffffff"
     bordercolor="#666666"
     borderopacity="1.0"
     inkscape:pageshadow="2"
     inkscape:pageopacity="0.0"
     inkscape:pagecheckerboard="0"
     inkscape:document-units="mm"
     showgrid="false"
     inkscape:zoom="0.7803872"
     inkscape:cx="386.98738"
     inkscape:cy="351.10776"
     inkscape:window-width="1280"
     inkscape:window-height="800"
     inkscape:window-x="0"
     inkscape:window-y="0"
     inkscape:window-maximized="0"
     inkscape:current-layer="layer1"
     units="in"
     width="7.5in" />
  <defs
     id="defs2" />
  <g
     inkscape:label="图层 1"
     inkscape:groupmode="layer"
     id="layer1">
    <g
       id="g106"
       transform="matrix(0.21243532,0,0,0.20699476,45.490021,69.440867)">
      <path
         d="m 3.686,188.165 c 0.498,10.26 10.758,5.479 15.34,2.291 4.383,-3.088 5.678,-0.498 6.076,-6.475 0.299,-3.984 0.697,-7.869 0.498,-11.853 -6.674,-0.598 -13.846,0.996 -19.325,4.98 -2.888,1.992 -8.068,8.567 -2.59,11.057 m 204.502,126.107 c 7.869,4.881 22.313,19.624 10.459,26.796 -11.356,10.36 -17.73,-11.456 -27.692,-14.444 4.283,-5.877 9.662,-11.256 17.233,-12.352 z m -140.85,16.635 c -9.264,1.395 -14.444,9.762 -22.213,14.046 -7.272,4.283 -10.061,-1.395 -10.659,-2.59 -1.095,-0.498 -0.996,0.498 -2.789,-1.295 -6.773,-10.659 6.973,-18.428 14.145,-23.708 9.961,-1.992 16.237,6.674 21.516,13.547 z M 251.916,186.87 c -0.498,10.26 -10.758,5.479 -15.34,2.291 -4.383,-3.088 -5.678,-0.498 -6.076,-6.475 -0.3,-3.984 -0.698,-7.869 -0.498,-11.853 6.673,-0.598 13.845,0.996 19.324,4.98 2.79,1.992 8.069,8.567 2.59,11.057"
         fill="#f6d2a2"
         id="path43" />
      <path
         d="M 224.722,61.759 C 260.283,49.208 232.492,0.499 201.512,22.014 181.192,4.582 153.202,1.394 123.816,1.394 95.03,3.687 67.636,8.966 48.511,25.7 17.63,5.777 -10.858,53.59 25.4,65.644 c -10.16,39.445 1.394,79.688 -0.2,119.831 -1.494,36.06 -10.957,84.37 9.065,116.744 17.034,27.692 53.69,37.554 83.873,38.65 38.549,1.394 85.266,-8.069 103.993,-45.423 17.93,-35.561 12.95,-79.888 10.659,-118.238 -2.291,-38.749 1.992,-78.095 -8.069,-115.45 z"
         fill="#69d7e2"
         id="path45" />
      <path
         d="m 254.605,180.794 c -0.996,-2.092 -2.888,-4.483 -4.681,-5.778 -4.582,-3.287 -10.46,-5.08 -16.536,-5.279 -0.199,-6.176 -0.398,-12.95 -0.398,-21.516 v -7.77 c -0.1,-24.504 -0.399,-35.262 -1.793,-48.71 -1.096,-10.558 -2.79,-20.32 -5.18,-29.484 8.069,-3.088 13.348,-8.168 15.44,-14.743 1.992,-6.076 0.996,-12.949 -2.39,-19.025 -3.487,-5.977 -9.065,-10.46 -15.54,-12.252 -6.973,-1.893 -14.543,-0.498 -21.815,4.382 C 195.237,15.141 187.767,10.957 179.399,7.769 164.557,2.292 147.325,0.2 123.916,0.2 V 1.196 L 123.816,0.2 C 98.814,2.192 80.286,6.077 64.946,13.548 58.77,16.536 53.292,20.122 48.511,24.306 41.139,19.724 33.469,18.628 26.397,20.82 19.823,22.812 14.145,27.494 10.758,33.57 7.371,39.646 6.574,46.619 8.865,52.596 c 2.291,5.976 7.57,10.658 15.44,13.547 -2.49,10.06 -3.785,20.719 -3.984,32.473 -0.2,11.455 0.298,20.62 2.091,41.338 1.295,15.44 1.793,22.512 1.993,31.079 -6.774,-0.299 -13.547,1.494 -18.628,5.18 -1.793,1.295 -3.785,3.586 -4.681,5.777 -1.295,2.79 -0.797,5.28 1.793,6.774 0.398,4.781 3.088,6.972 7.172,6.574 2.988,-0.299 6.574,-1.893 9.662,-4.084 a 11.208,11.208 0 0 1 2.092,-1.195 c 0.299,-0.1 0.498,-0.2 0.797,-0.3 0,0 0.597,-0.198 0.797,-0.298 0.298,-0.1 0.597,-0.2 0.796,-0.399 -0.199,4.682 -0.597,9.563 -1.494,20.72 -0.996,12.55 -1.494,19.424 -1.693,27.094 -0.897,28.488 2.49,49.207 12.65,65.643 3.188,5.18 7.073,9.762 11.655,13.946 -0.897,0.597 -4.682,3.387 -5.877,4.283 -4.184,3.188 -7.072,5.877 -8.766,8.865 -2.191,3.885 -2.191,7.77 0.299,11.854 l 0.1,0.1 0.1,0.1 c 1.095,1.095 1.693,1.394 2.49,1.394 h 0.297 c 0.1,0.2 0.2,0.299 0.3,0.498 0.298,0.498 0.597,0.896 0.896,1.295 2.49,2.889 5.976,3.586 10.658,0.797 2.49,-1.295 4.283,-2.79 8.068,-5.977 l 0.2,-0.2 c 6.076,-5.179 9.064,-7.071 13.547,-7.769 l 1.594,-0.299 c 0.597,0.3 1.195,0.499 1.892,0.797 14.145,5.678 30.58,8.766 47.216,9.364 21.516,0.797 42.235,-1.893 59.766,-8.268 4.682,-1.693 9.065,-3.686 13.249,-5.877 2.59,0.996 4.78,3.088 8.965,7.969 0.199,0.2 0.199,0.2 0.298,0.398 0.2,0.2 0.2,0.3 0.3,0.399 0.198,0.299 0.497,0.498 0.696,0.797 3.288,3.884 5.48,5.777 7.97,6.873 3.286,1.394 6.474,0.697 9.761,-2.291 5.778,-3.586 6.176,-9.164 2.39,-15.54 -2.689,-4.482 -7.37,-9.164 -11.753,-12.152 5.18,-5.08 9.662,-11.156 13.148,-18.03 9.563,-19.125 13.249,-41.438 13.05,-70.126 -0.1,-10.16 -0.499,-19.025 -1.594,-35.96 v -0.497 c 0.498,0.199 0.996,0.498 1.494,0.896 3.088,2.092 6.674,3.785 9.662,4.084 4.084,0.399 6.774,-1.793 7.172,-6.574 2.49,-1.594 2.988,-4.084 1.693,-6.873 z M 222.93,18.328 c 5.977,1.594 11.157,5.778 14.344,11.356 3.188,5.578 4.084,11.854 2.291,17.432 -1.892,5.877 -6.674,10.559 -14.145,13.348 a 162.04,162.04 0 0 0 -5.279,-15.739 c 2.889,-2.49 4.283,-5.578 1.992,-9.96 -2.29,-4.384 -6.275,-4.882 -10.36,-3.587 -2.59,-3.387 -5.478,-6.375 -8.466,-9.164 6.574,-4.184 13.348,-5.379 19.623,-3.686 z M 10.56,51.997 C 8.468,46.617 9.165,40.243 12.353,34.665 15.54,29.086 20.72,24.704 26.896,22.911 c 6.375,-1.893 13.248,-0.997 20.022,2.988 a 65.541,65.541 0 0 0 -10.36,11.854 c -5.18,-2.69 -10.459,-3.188 -13.447,2.29 -3.088,5.878 0.498,9.563 5.578,12.352 -0.697,1.694 -1.395,3.487 -1.992,5.28 -0.698,2.191 -1.395,4.482 -1.992,6.773 C 17.433,61.659 12.652,57.376 10.56,51.997 Z m 12.053,135.77 c -0.1,0 -0.698,0.199 -0.698,0.298 -0.298,0.1 -0.597,0.2 -0.896,0.399 -0.797,0.299 -1.594,0.797 -2.39,1.394 -2.79,1.993 -6.177,3.487 -8.767,3.686 -2.988,0.299 -4.681,-0.996 -4.98,-4.582 2.092,-0.697 2.988,-1.195 3.785,-2.39 l -1.594,-1.196 c -0.597,0.797 -1.195,1.096 -2.988,1.693 -0.1,0 -0.1,0 -0.2,0.1 -1.593,-0.897 -1.892,-2.291 -0.995,-4.283 0.797,-1.793 2.59,-3.885 4.084,-4.98 4.781,-3.487 11.156,-5.18 17.531,-4.782 0,2.49 0.1,4.98 0,7.37 0,0.3 0,0.499 -0.1,0.798 -0.099,1.394 -0.099,1.992 -0.199,2.69 -0.298,2.888 -0.498,3.286 -1.593,3.785 z m 30.082,150.312 -0.2,0.2 c -3.685,3.187 -5.478,4.482 -7.769,5.777 -3.785,2.291 -6.375,1.793 -8.168,-0.398 -0.299,-0.3 -0.498,-0.698 -0.697,-0.997 -0.1,-0.1 -0.2,-0.298 -0.299,-0.398 v -0.1 c 0.2,-1.793 0.897,-3.088 2.69,-5.877 0.1,-0.1 0.1,-0.1 0.1,-0.199 1.095,-1.594 1.593,-2.49 2.091,-3.586 l -1.793,-0.797 c -0.398,0.897 -0.896,1.694 -1.893,3.287 -0.1,0.1 -0.1,0.1 -0.1,0.2 -1.792,2.59 -2.59,4.183 -2.988,5.976 h -0.1 -0.299 c -0.2,-0.1 -0.498,-0.299 -0.896,-0.697 -3.885,-6.176 -0.797,-11.455 7.968,-18.03 1.096,-0.796 4.782,-3.386 5.778,-4.183 0.2,0 0.398,-0.1 0.598,-0.2 5.378,4.583 11.654,8.567 18.627,11.854 0,0.1 0.1,0.2 0.199,0.3 -4.084,0.995 -7.272,3.087 -12.85,7.868 z m 167.247,-10.857 c 3.088,5.18 2.988,9.363 -0.897,12.252 -0.298,-0.598 -0.498,-1.295 -0.896,-2.291 0,-0.1 0,-0.1 -0.1,-0.2 -1.394,-3.785 -2.29,-5.378 -3.984,-7.171 l -1.395,1.394 c 1.494,1.395 2.192,2.889 3.586,6.375 0,0.1 0,0.1 0.1,0.2 0.498,1.294 0.797,2.091 1.096,2.789 -2.59,2.191 -4.881,2.59 -7.272,1.494 -2.092,-0.897 -4.084,-2.79 -7.272,-6.375 -0.199,-0.2 -0.398,-0.498 -0.597,-0.797 -0.1,-0.1 -0.2,-0.2 -0.3,-0.399 -0.198,-0.199 -0.198,-0.199 -0.298,-0.398 -3.686,-4.283 -5.877,-6.574 -8.268,-7.87 5.579,-3.187 10.56,-6.773 15.042,-10.957 4.183,3.088 8.865,7.67 11.455,11.954 z m 1.394,-32.274 c -8.566,17.233 -23.707,29.385 -44.028,36.756 -17.332,6.276 -37.852,8.866 -59.069,8.069 -36.557,-1.295 -68.233,-14.045 -83.075,-38.151 -9.961,-16.038 -13.249,-36.458 -12.352,-64.548 0.299,-7.67 0.697,-14.543 1.693,-27.094 1.096,-14.145 1.395,-18.229 1.694,-24.604 0.199,-4.582 0.199,-9.264 0.1,-14.244 -0.2,-8.766 -0.698,-15.739 -1.993,-31.378 -1.793,-20.719 -2.291,-29.784 -2.092,-41.14 0.3,-14.94 2.291,-28.09 6.475,-40.54 C 35.46,37.851 47.913,24.204 65.843,15.34 80.884,7.97 99.113,4.184 123.916,2.191 c 23.21,0 40.143,2.092 54.786,7.471 17.531,6.475 30.58,17.83 39.545,35.263 5.778,14.144 9.165,29.385 10.958,46.916 1.394,13.348 1.693,24.106 1.793,48.51 v 7.77 c 0.1,12.053 0.298,20.52 0.797,28.987 0.199,3.287 0.298,4.682 0.796,12.551 1.096,16.934 1.495,25.7 1.594,35.86 0.2,28.588 -3.387,50.602 -12.85,69.429 z m 30.481,-109.074 c -0.1,0 -0.199,-0.1 -0.298,-0.1 -1.793,-0.597 -2.391,-0.996 -2.989,-1.693 l -1.594,1.195 c 0.897,1.196 1.793,1.694 3.786,2.39 -0.399,3.587 -2.092,4.882 -4.98,4.583 -2.59,-0.2 -5.978,-1.793 -8.767,-3.686 -0.797,-0.597 -1.593,-0.996 -2.39,-1.394 -0.1,0 -0.2,-0.1 -0.3,-0.1 -0.398,-5.478 -0.398,-6.873 -0.597,-9.762 l -0.299,-5.379 c 5.579,0.1 11.057,1.793 15.24,4.881 1.495,1.096 3.288,3.188 4.085,4.98 0.996,1.694 0.797,3.188 -0.897,4.085 z"
         id="path47" />
      <path
         d="m 138.918,104.123 c 0.1,5.08 1.096,10.658 0.199,16.037 -1.395,2.59 -3.984,2.89 -6.275,3.885 -3.188,-0.498 -5.878,-2.59 -7.172,-5.578 -0.797,-6.076 0.199,-11.854 0.498,-17.93 0,-0.2 3.785,0.1 7.172,1.096 2.888,0.896 5.578,2.39 5.578,2.49 z m -28.19,0.398 c -2.79,10.56 3.686,27.792 14.344,13.647 -0.797,-5.977 0.1,-11.754 0.398,-17.631 0.1,-0.498 -14.642,3.287 -14.742,3.984 z"
         fill="#ffffff"
         id="path49" />
      <path
         d="m 140.113,108.805 c -0.2,-2.989 -0.299,-4.184 -0.299,-5.678 v -0.697 l -0.697,-0.2 -12.551,-3.884 v -0.698 l -1.295,0.3 h -0.1 v 0.099 l -14.144,3.586 -0.498,0.1 -0.2,0.497 c -2.191,5.28 -1.693,13.249 1.096,18.13 3.188,5.578 8.367,5.677 13.647,-0.698 a 10.192,10.192 0 0 0 7.47,5.38 h 0.3 l 0.298,-0.1 c 0.399,-0.2 0.797,-0.3 1.495,-0.598 0.1,0 0.1,0 0.199,-0.1 2.888,-0.996 4.084,-1.793 5.08,-3.685 l 0.1,-0.1 v -0.199 c 0.298,-1.793 0.398,-3.686 0.398,-5.777 0,-1.495 -0.1,-2.89 -0.299,-5.678 z m -15.938,-3.686 c -0.1,1.793 -0.199,2.49 -0.298,3.486 -0.2,3.686 -0.2,6.475 0.1,9.264 -4.683,5.977 -8.368,5.977 -10.858,1.494 -2.391,-4.183 -2.89,-11.256 -1.096,-15.937 l 12.55,-3.188 c -0.099,1.295 -0.198,2.59 -0.398,4.881 z m 13.946,14.743 c -0.697,1.195 -1.594,1.793 -3.985,2.59 -0.1,0 -0.1,0 -0.199,0.099 -0.597,0.2 -0.996,0.398 -1.295,0.498 -2.69,-0.498 -4.98,-2.291 -6.076,-4.781 -0.299,-2.69 -0.299,-5.479 -0.1,-9.164 0.1,-0.997 0.1,-1.694 0.3,-3.487 0.198,-2.29 0.298,-3.685 0.298,-4.98 l 10.858,3.287 c 0,1.295 0.1,2.49 0.299,5.08 0.199,2.69 0.298,4.084 0.298,5.678 0,1.892 -0.1,3.586 -0.398,5.18 z"
         id="path51" />
      <g
         transform="translate(48.476,21.976)"
         id="g61">
        <path
           d="m 2.291,38.749 c 9.164,35.66 66.241,26.496 64.05,-9.264 C 63.75,-13.348 -6.475,-5.08 2.29,38.749"
           fill="#ffffff"
           id="path53" />
        <path
           d="M 67.337,29.385 C 66.739,19.025 62.157,10.957 54.587,5.877 47.813,1.295 38.848,-0.498 29.983,0.597 21.118,1.794 12.949,5.778 7.57,12.054 1.594,19.026 -0.697,28.19 1.395,38.749 l 0.896,-0.2 -0.896,0.2 C 10.758,75.405 69.528,66.54 67.337,29.385 Z M 3.187,38.55 C 1.195,28.49 3.387,19.923 8.965,13.448 14.045,7.571 21.715,3.687 30.182,2.591 c 8.467,-1.096 16.934,0.598 23.31,4.98 7.071,4.782 11.355,12.253 11.952,22.114 2.092,34.764 -53.391,43.132 -62.256,8.865 z"
           id="path55" />
        <ellipse
           cx="18.030001"
           cy="32.872002"
           rx="9.6619997"
           ry="10.459"
           id="ellipse57" />
        <ellipse
           fill="#ffffff"
           cx="22.412001"
           cy="35.262001"
           rx="2.2909999"
           ry="2.6889999"
           id="ellipse59" />
      </g>
      <g
         transform="translate(129.618,18.098)"
         id="g71">
        <path
           d="M 1.195,35.96 C 8.268,76.9 75.206,66.042 65.544,24.803 56.878,-12.252 -1.196,-1.992 1.195,35.96"
           fill="#ffffff"
           id="path63" />
        <path
           d="M 66.44,24.604 C 57.575,-13.547 -2.19,-3.088 0.2,36.059 v 0.1 C 3.486,55.483 20.72,65.345 39.745,62.157 48.41,60.663 56.18,56.48 61.26,50.304 66.838,43.43 68.83,34.565 66.44,24.604 Z M 59.767,49.108 C 54.985,54.886 47.714,58.87 39.446,60.265 21.416,63.253 5.279,53.989 2.092,35.86 -0.1,-0.996 56.28,-10.858 64.647,25.002 c 2.192,9.463 0.399,17.731 -4.88,24.106 z"
           id="path65" />
        <ellipse
           cx="17.631001"
           cy="34.167"
           rx="9.4630003"
           ry="10.459"
           id="ellipse67" />
        <ellipse
           fill="#ffffff"
           cx="22.014"
           cy="36.556999"
           rx="2.191"
           ry="2.6889999"
           id="ellipse69" />
      </g>
      <g
         id="g79">
        <path
           d="m 112.785,83.002 c -7.87,0.697 -14.245,9.961 -10.16,17.332 5.378,9.762 17.431,-0.896 24.902,0.1 8.666,0.2 15.739,9.164 22.612,1.594 7.67,-8.368 -3.287,-16.536 -11.954,-20.122 z"
           fill="#f6d2a2"
           id="path73" />
        <path
           d="m 151.135,89.676 c -2.69,-3.387 -7.371,-6.475 -12.452,-8.567 l -0.199,-0.1 h -0.199 l -25.5,0.997 c -8.866,0.797 -15.24,11.057 -10.958,18.826 1.694,2.989 3.985,4.483 7.073,4.682 2.29,0.1 4.682,-0.398 8.367,-1.693 0.299,-0.1 0.697,-0.2 1.195,-0.399 4.981,-1.693 6.973,-2.191 8.965,-1.892 h 0.1 c 2.39,0 4.383,0.697 8.168,2.191 4.184,1.693 5.479,2.192 7.57,2.39 2.89,0.2 5.38,-0.796 7.67,-3.286 3.885,-4.284 3.686,-8.866 0.2,-13.149 z m -1.694,11.754 c -1.892,2.092 -3.785,2.79 -6.076,2.69 -1.793,-0.1 -2.988,-0.598 -6.973,-2.192 -3.984,-1.693 -6.175,-2.29 -8.765,-2.39 -2.49,-0.3 -4.582,0.199 -9.862,1.992 -0.498,0.199 -0.896,0.299 -1.195,0.398 -7.272,2.49 -10.758,2.291 -13.149,-2.092 -3.586,-6.474 1.893,-15.24 9.364,-15.937 l 25.201,-0.997 c 4.782,1.993 9.065,4.881 11.555,7.97 2.988,3.585 3.088,7.171 -0.1,10.558 z"
           fill="#231f20"
           id="path75" />
        <path
           d="m 140.178,78.719 c -3.088,-11.356 -28.987,-9.662 -28.39,3.885 1.295,10.06 31.378,7.37 28.39,-3.885 z"
           id="path77" />
      </g>
    </g>
    <path
       id="path13202"
       style="fill:#00ffff;fill-rule:evenodd;stroke-width:0.068516"
       d="m 90.597507,35.001231 78.536793,-0.33876 c 2.65141,-0.01143 4.78593,2.479064 4.78593,5.58408 v 19.954344 c 0,3.10502 -1.849,4.85261 -4.5004,4.86404 l -4.90855,0.0212 -4.90855,0.0211 -4.90855,0.0212 -4.90855,0.0212 -4.90855,0.0212 -4.90855,0.0212 -4.90855,0.0212 -4.90855,0.0212 -4.90855,0.0212 -4.90855,0.0212 -4.90856,0.0212 -4.90854,0.0212 -4.90855,0.0212 -12.760453,8.22604 2.943357,-8.18369 -4.908547,0.0212 c -2.65141,0.0114 -5.071453,-1.71774 -5.071453,-4.82276 V 40.626346 c 0,-3.105016 2.134523,-5.613928 4.785923,-5.625364 z"
       sodipodi:nodetypes="ssssscccccccccccccccssss" />
    <text
       xml:space="preserve"
       style="font-style:normal;font-weight:normal;font-size:27.3849px;line-height:1.25;font-family:sans-serif;fill:#000000;fill-opacity:1;stroke:none;stroke-width:0.14263"
       x="82.22113"
       y="60.46067"
       id="text1758"
       transform="matrix(1.1618265,0.05492352,-0.0646396,0.85765797,0,0)"><tspan
         sodipodi:role="line"
         id="tspan1756"
         style="font-style:italic;font-variant:normal;font-weight:normal;font-stretch:normal;font-size:27.3849px;font-family:Phosphate;-inkscape-font-specification:'Phosphate Italic';stroke-width:0.14263"
         x="82.22113"
         y="60.46067">YACC</tspan></text>
  </g>
</svg>